# Blender 4.4.3
# www.blender.org
mtllib black_knife.mtl
o Circle.003
v -0.000287 0.004050 -0.032832
v -0.010312 0.021297 0.008584
v 0.009737 0.021297 0.008584
v -0.000287 0.021297 0.008584
v -0.000287 -0.021438 0.031590
v -0.037548 0.021149 0.027554
v -0.000287 -0.030501 -0.096766
v -0.000287 0.021149 0.027554
v 0.036973 0.021149 0.027554
v -0.010312 0.285383 0.008584
v -0.000287 0.268135 -0.032832
v 0.009737 0.285383 0.008584
v -0.000287 0.369267 -0.050957
v -0.000287 0.565698 -0.071984
v -0.000287 0.716561 -0.081096
v -0.000287 0.830158 -0.083177
v -0.000287 0.902910 -0.079412
v -0.000287 1.002698 -0.070727
v -0.000287 1.056494 -0.057303
v 0.008601 0.385608 0.008584
v -0.000287 1.105867 -0.040197
v -0.009175 0.385608 0.008584
v -0.000287 1.118756 0.008584
v -0.000287 1.169231 0.008584
v -0.000287 0.386515 0.008584
v -0.000287 0.582946 0.008584
v -0.000287 0.730451 0.008584
v -0.000287 0.844047 0.008584
v -0.000287 0.916799 0.008584
v -0.000287 1.016588 0.008584
v -0.000287 1.069383 0.008584
v 0.006364 0.582805 0.008584
v -0.006939 0.582805 0.008584
v 0.004682 0.731079 0.008584
v -0.005257 0.731079 0.008584
v 0.003401 0.844055 0.008584
v -0.003976 0.844055 0.008584
v 0.002576 0.916811 0.008584
v -0.003150 0.916811 0.008584
v 0.001144 1.043021 0.008584
v -0.001719 1.043021 0.008584
v 0.000845 1.069376 0.008584
v -0.001420 1.069376 0.008584
v 0.000286 1.118655 0.008584
v -0.000861 1.118655 0.008584
v 0.001446 1.016449 0.008584
v -0.002020 1.016449 0.008584
v -0.000287 1.042986 0.008584
vn -0.0000 0.8403 -0.5421
vn -0.5131 0.8581 0.0191
vn 0.5131 0.8581 0.0191
vn -0.0000 1.0000 0.0078
vn -0.0000 -0.7707 0.6372
vn -0.8181 0.3992 0.4141
vn -0.0000 -0.3005 -0.9538
vn -0.0000 0.7371 0.6758
vn 0.8181 0.3992 0.4141
vn -0.7878 0.0056 0.6159
vn -0.0000 -0.0053 -1.0000
vn 0.7878 0.0056 0.6159
vn -0.0000 -0.1442 -0.9895
vn -0.0000 0.0126 -0.9999
vn -0.0000 0.0472 -0.9989
vn -0.0000 0.0960 -0.9954
vn -0.0000 0.1287 -0.9917
vn -0.0000 0.2529 -0.9675
vn -0.0000 0.3355 -0.9421
vn 0.7567 -0.0091 0.6536
vn -0.0000 0.4864 -0.8738
vn -0.7567 -0.0091 0.6536
vn -0.0000 -0.0000 1.0000
vn -0.0000 0.9755 0.2199
vn 0.7342 0.0038 0.6789
vn -0.7342 0.0038 0.6789
vn 0.7256 0.0054 0.6881
vn -0.7256 0.0054 0.6881
vn 0.7208 0.0066 0.6931
vn -0.7208 0.0066 0.6931
vn 0.7181 0.0062 0.6959
vn -0.7181 0.0062 0.6959
vn 0.7139 0.0081 0.7002
vn -0.7139 0.0081 0.7002
vn 0.7133 0.0072 0.7008
vn -0.7133 0.0072 0.7008
vn 0.7123 0.0081 0.7019
vn -0.7123 0.0081 0.7019
vn 0.7149 0.0072 0.6992
vn -0.7149 0.0072 0.6992
vt 0.292758 0.877945
vt 0.279355 0.877945
vt 0.279355 0.701401
vt 0.292758 0.701401
vt 0.292758 0.376143
vt 0.321241 0.401053
vt 0.292758 0.401053
vt 0.292758 0.425962
vt 0.292758 0.193375
vt 0.319387 0.203180
vt 0.292758 0.284759
vt 0.319387 0.376143
vt 0.292758 0.294564
vt 0.319387 0.284759
vt 0.324370 0.180693
vt 0.317668 0.153097
vt 0.317668 0.110537
vt 0.342577 0.193375
vt 0.317668 0.180693
vt 0.317668 0.193375
vt 0.310966 0.180693
vt 0.292758 0.193375
vt 0.279215 0.877976
vt 0.251119 0.889463
vt 0.251259 0.712919
vt 0.279355 0.701431
vt 0.184843 0.889463
vt 0.156747 0.877976
vt 0.156607 0.701431
vt 0.184703 0.712918
vt 0.286056 0.633793
vt 0.283591 0.327921
vt 0.284142 0.279283
vt 0.286056 0.327927
vt 0.286056 0.194934
vt 0.286056 0.177287
vt 0.287014 0.194910
vt 0.280115 0.634399
vt 0.291998 0.634399
vt 0.286056 0.502476
vt 0.281610 0.502570
vt 0.290503 0.502570
vt 0.286056 0.403867
vt 0.282734 0.403447
vt 0.289379 0.403447
vt 0.288522 0.327921
vt 0.287970 0.279283
vt 0.286056 0.279291
vt 0.286056 0.212581
vt 0.284898 0.212674
vt 0.287215 0.212674
vt 0.285100 0.194910
vt 0.285299 0.177291
vt 0.286814 0.177291
vt 0.285673 0.144348
vt 0.286440 0.144348
vt 0.286056 0.144280
vt 0.286057 0.110537
vt 0.279355 0.144349
vt 0.246790 0.152881
vt 0.279355 0.110537
vt 0.235356 0.185883
vt 0.279355 0.177295
vt 0.279355 0.194915
vt 0.279355 0.212679
vt 0.226375 0.221841
vt 0.279355 0.279292
vt 0.220530 0.288548
vt 0.279355 0.327933
vt 0.217981 0.337183
vt 0.279355 0.403463
vt 0.219308 0.413124
vt 0.279355 0.502590
vt 0.225306 0.513981
vt 0.279355 0.634426
vt 0.239225 0.645305
vt 0.156607 0.634426
vt 0.196737 0.645304
vt 0.210656 0.513981
vt 0.156607 0.502590
vt 0.216654 0.413124
vt 0.156607 0.403463
vt 0.217981 0.337183
vt 0.156607 0.327933
vt 0.215432 0.288548
vt 0.156607 0.279292
vt 0.209587 0.221841
vt 0.156607 0.212679
vt 0.200606 0.185882
vt 0.156607 0.194914
vt 0.156607 0.177295
vt 0.189173 0.152881
vt 0.156607 0.144349
vt 0.156607 0.110537
s 1
usemtl Material
f 2/1/2 3/2/3 12/3/12 10/4/10
f 6/5/6 5/6/5 8/7/8
f 8/7/8 5/6/5 9/8/9
f 9/9/9 5/10/5 7/11/7
f 7/12/7 5/13/5 6/14/6
f 2/15/2 1/16/1 7/17/7 6/18/6
f 4/19/4 2/15/2 6/18/6 8/20/8
f 1/16/1 3/21/3 9/22/9 7/17/7
f 3/21/3 4/19/4 8/20/8 9/22/9
f 3/23/3 1/24/1 11/25/11 12/26/12
f 1/27/1 2/28/2 10/29/10 11/30/11
f 25/31/23 10/4/10 12/3/12
f 36/32/29 38/33/31 28/34/23
f 48/35/23 31/36/23 41/37/34
f 12/3/12 20/38/20 25/31/23
f 22/39/22 10/4/10 25/31/23
f 26/40/23 25/31/23 32/41/25
f 26/40/23 33/42/26 25/31/23
f 22/39/22 25/31/23 33/42/26
f 32/41/25 25/31/23 20/38/20
f 26/40/23 32/41/25 27/43/23
f 27/43/23 33/42/26 26/40/23
f 32/41/25 34/44/27 27/43/23
f 33/42/26 27/43/23 35/45/28
f 28/34/23 35/45/28 27/43/23
f 27/43/23 34/44/27 28/34/23
f 34/44/27 36/32/29 28/34/23
f 35/45/28 28/34/23 37/46/30
f 39/47/32 37/46/30 28/34/23
f 28/34/23 38/33/31 29/48/23
f 28/34/23 29/48/23 39/47/32
f 29/48/23 38/33/31 30/49/23
f 30/49/23 39/47/32 29/48/23
f 38/33/31 46/50/39 30/49/23
f 39/47/32 30/49/23 47/51/40
f 47/51/40 30/49/23 41/37/34
f 40/52/33 30/49/23 46/50/39
f 30/49/23 40/52/33 48/35/23
f 30/49/23 48/35/23 41/37/34
f 31/36/23 48/35/23 40/52/33
f 40/52/33 42/53/35 31/36/23
f 41/37/34 31/36/23 43/54/36
f 44/55/37 31/36/23 42/53/35
f 43/54/36 31/36/23 45/56/38
f 31/36/23 44/55/37 23/57/23
f 23/57/23 45/56/38 31/36/23
f 23/57/23 24/58/24 45/56/38
f 44/55/37 24/58/24 23/57/23
f 44/59/37 21/60/21 24/61/24
f 19/62/19 21/60/21 42/63/35
f 44/59/37 42/63/35 21/60/21
f 42/63/35 40/64/33 19/62/19
f 40/64/33 46/65/39 19/62/19
f 19/62/19 46/65/39 18/66/18
f 46/65/39 38/67/31 18/66/18
f 18/66/18 38/67/31 17/68/17
f 38/67/31 36/69/29 17/68/17
f 17/68/17 36/69/29 16/70/16
f 36/69/29 34/71/27 16/70/16
f 16/70/16 34/71/27 15/72/15
f 34/71/27 32/73/25 15/72/15
f 15/72/15 32/73/25 14/74/14
f 32/73/25 20/75/20 14/74/14
f 14/74/14 20/75/20 13/76/13
f 13/76/13 20/75/20 11/25/11
f 12/26/12 11/25/11 20/75/20
f 11/30/11 10/29/10 22/77/22
f 13/78/13 11/30/11 22/77/22
f 14/79/14 13/78/13 22/77/22
f 22/77/22 33/80/26 14/79/14
f 14/79/14 33/80/26 15/81/15
f 33/80/26 35/82/28 15/81/15
f 15/81/15 35/82/28 16/83/16
f 35/82/28 37/84/30 16/83/16
f 16/83/16 37/84/30 17/85/17
f 37/84/30 39/86/32 17/85/17
f 17/85/17 39/86/32 18/87/18
f 39/86/32 47/88/40 18/87/18
f 18/87/18 47/88/40 19/89/19
f 47/88/40 41/90/34 19/89/19
f 43/91/36 19/89/19 41/90/34
f 19/89/19 43/91/36 21/92/21
f 43/91/36 45/93/38 21/92/21
f 45/93/38 24/94/24 21/92/21
o Circle.004
v -0.000287 0.022599 -0.044799
v -0.021638 0.042805 0.023341
v 0.021063 0.042805 0.023341
v -0.000287 0.045936 0.023091
v -0.000287 -0.038452 0.045654
v -0.055606 0.029960 0.036695
v -0.000287 -0.037134 -0.117820
v -0.000287 0.037420 0.042473
v 0.055031 0.029960 0.036695
v -0.027702 0.285505 0.022179
v -0.000287 0.268018 -0.054906
v 0.027128 0.285505 0.022179
v -0.000287 0.366084 -0.072800
v -0.000287 0.565977 -0.094057
v -0.000287 0.717603 -0.103146
v -0.000287 0.832277 -0.105149
v -0.000287 0.905750 -0.101303
v -0.000287 1.008280 -0.092084
v -0.000287 1.063899 -0.078098
v 0.025305 0.385407 0.023012
v -0.000287 1.116603 -0.059485
v -0.025880 0.385407 0.023012
v -0.000287 1.118756 0.030658
v -0.000287 1.208779 0.025987
v -0.000287 0.386515 0.030658
v -0.000287 0.582946 0.030658
v -0.000287 0.730451 0.030658
v -0.000287 0.844047 0.030658
v -0.000287 0.916799 0.030658
v -0.000287 1.016588 0.030658
v -0.000287 1.069383 0.030658
v 0.022571 0.582889 0.023570
v -0.023146 0.582889 0.023570
v 0.020698 0.731198 0.023774
v -0.021273 0.731198 0.023774
v 0.019312 0.844201 0.023883
v -0.019887 0.844201 0.023883
v 0.018427 0.916949 0.023945
v -0.019002 0.916949 0.023945
v 0.016903 1.043200 0.024040
v -0.017477 1.043200 0.024040
v 0.016591 1.069534 0.024053
v -0.017166 1.069534 0.024053
v 0.016009 1.118834 0.024077
v -0.016583 1.118834 0.024077
v 0.017226 1.016608 0.024019
v -0.017800 1.016608 0.024019
v -0.000287 1.042986 0.030658
vn -0.0000 -0.7227 0.6912
vn 0.6509 -0.7227 -0.2325
vn -0.6509 -0.7227 -0.2325
vn -0.0000 -0.9037 -0.4282
vn -0.0000 0.8002 -0.5997
vn 0.8963 -0.2531 -0.3640
vn -0.0000 0.2553 0.9669
vn -0.0000 -0.5656 -0.8246
vn -0.8963 -0.2531 -0.3640
vn 0.8269 0.0253 -0.5617
vn -0.0000 0.0539 0.9985
vn -0.8269 0.0253 -0.5617
vn -0.0000 0.1440 0.9896
vn -0.0000 0.0225 0.9997
vn -0.0000 0.0012 1.0000
vn -0.0000 -0.0378 0.9993
vn -0.0000 -0.0740 0.9973
vn -0.0000 -0.1542 0.9880
vn -0.0000 -0.2548 0.9670
vn -0.8719 0.0108 -0.4895
vn -0.0000 -0.4300 0.9028
vn 0.8719 0.0108 -0.4895
vn -0.0000 -0.0257 -0.9997
vn -0.0000 -0.9704 -0.2417
vn -0.0000 0.0079 -1.0000
vn -0.0000 -0.0000 -1.0000
vn -0.0000 -0.0013 -1.0000
vn -0.0000 -0.0028 -1.0000
vn -0.0000 -0.0029 -1.0000
vn -0.8565 -0.0042 -0.5162
vn 0.8565 -0.0042 -0.5162
vn -0.8545 -0.0067 -0.5194
vn 0.8545 -0.0067 -0.5194
vn -0.8558 -0.0095 -0.5172
vn 0.8558 -0.0095 -0.5172
vn -0.8585 -0.0084 -0.5127
vn 0.8585 -0.0084 -0.5127
vn -0.8680 -0.0086 -0.4965
vn 0.8680 -0.0086 -0.4965
vn -0.8718 -0.0155 -0.4896
vn 0.8718 -0.0155 -0.4896
vn -0.8845 -0.0787 -0.4598
vn 0.8845 -0.0787 -0.4598
vn -0.8646 -0.0127 -0.5023
vn 0.8646 -0.0127 -0.5023
vt 0.873130 0.850714
vt 0.869205 0.693642
vt 0.904690 0.693642
vt 0.900765 0.850714
vt 0.904690 0.141138
vt 0.929509 0.114890
vt 0.960378 0.153085
vt 0.960378 0.096130
vt 0.764816 0.859217
vt 0.869205 0.903870
vt 0.765385 0.902905
vt 0.660426 0.903870
vt 0.764246 0.902905
vt 0.751985 0.850762
vt 0.706243 0.864410
vt 0.926014 0.110566
vt 0.916541 0.120828
vt 0.823389 0.864410
vt 0.777646 0.850762
vt 0.938035 0.103457
vt 0.779875 0.693793
vt 0.832078 0.705729
vt 0.697554 0.705729
vt 0.749757 0.693793
vt 0.886947 0.628292
vt 0.899632 0.332071
vt 0.886947 0.332187
vt 0.899059 0.284990
vt 0.886947 0.203439
vt 0.875822 0.203284
vt 0.886947 0.186355
vt 0.903511 0.628989
vt 0.870384 0.628989
vt 0.886947 0.501166
vt 0.901741 0.501185
vt 0.872154 0.501185
vt 0.886947 0.405704
vt 0.900529 0.405203
vt 0.873366 0.405203
vt 0.874263 0.332071
vt 0.874836 0.284990
vt 0.886947 0.285104
vt 0.886947 0.220523
vt 0.898281 0.220493
vt 0.875613 0.220493
vt 0.898072 0.203284
vt 0.897871 0.186241
vt 0.876024 0.186241
vt 0.897494 0.154335
vt 0.876401 0.154335
vt 0.886947 0.154402
vt 0.886947 0.096130
vt 0.787767 0.154488
vt 0.789416 0.096130
vt 0.842839 0.156720
vt 0.854171 0.191028
vt 0.787253 0.186392
vt 0.786979 0.203434
vt 0.786706 0.220643
vt 0.862537 0.227171
vt 0.785681 0.285136
vt 0.867442 0.293613
vt 0.784937 0.332214
vt 0.869205 0.341195
vt 0.783788 0.405343
vt 0.866872 0.415370
vt 0.782311 0.501322
vt 0.859697 0.513376
vt 0.780497 0.629128
vt 0.844349 0.642476
vt 0.749134 0.629128
vt 0.685283 0.642476
vt 0.669935 0.513376
vt 0.747320 0.501322
vt 0.662760 0.415370
vt 0.745844 0.405343
vt 0.660426 0.341195
vt 0.744695 0.332214
vt 0.662189 0.293613
vt 0.743951 0.285136
vt 0.667094 0.227171
vt 0.742925 0.220643
vt 0.675460 0.191029
vt 0.742653 0.203434
vt 0.742378 0.186392
vt 0.686792 0.156720
vt 0.741865 0.154488
vt 0.740215 0.096130
s 1
usemtl Material
f 50/95/42 58/96/50 60/97/52 51/98/43
f 54/99/46 56/100/48 53/101/45
f 56/100/48 57/102/49 53/101/45
f 57/103/49 55/104/47 53/105/45
f 55/106/47 54/103/46 53/107/45
f 50/108/42 54/103/46 55/106/47 49/109/41
f 52/110/44 56/100/48 54/99/46 50/111/42
f 49/112/41 55/104/47 57/103/49 51/113/43
f 51/114/43 57/102/49 56/100/48 52/110/44
f 51/113/43 60/115/52 59/116/51 49/112/41
f 49/109/41 59/117/51 58/118/50 50/108/42
f 73/119/65 60/97/52 58/96/50
f 84/120/74 76/121/68 86/122/76
f 96/123/66 89/124/79 79/125/69
f 60/97/52 73/119/65 68/126/60
f 70/127/62 73/119/65 58/96/50
f 74/128/66 80/129/70 73/119/65
f 74/128/66 73/119/65 81/130/71
f 70/127/62 81/130/71 73/119/65
f 80/129/70 68/126/60 73/119/65
f 74/128/66 75/131/67 80/129/70
f 75/131/67 74/128/66 81/130/71
f 80/129/70 75/131/67 82/132/72
f 81/130/71 83/133/73 75/131/67
f 76/121/68 75/131/67 83/133/73
f 75/131/67 76/121/68 82/132/72
f 82/132/72 76/121/68 84/120/74
f 83/133/73 85/134/75 76/121/68
f 87/135/77 76/121/68 85/134/75
f 76/121/68 77/136/66 86/122/76
f 76/121/68 87/135/77 77/136/66
f 77/136/66 78/137/68 86/122/76
f 78/137/68 77/136/66 87/135/77
f 86/122/76 78/137/68 94/138/84
f 87/135/77 95/139/85 78/137/68
f 95/139/85 89/124/79 78/137/68
f 88/140/78 94/138/84 78/137/68
f 78/137/68 96/123/66 88/140/78
f 78/137/68 89/124/79 96/123/66
f 79/125/69 88/140/78 96/123/66
f 88/140/78 79/125/69 90/141/80
f 89/124/79 91/142/81 79/125/69
f 92/143/82 90/141/80 79/125/69
f 91/142/81 93/144/83 79/125/69
f 79/125/69 71/145/63 92/143/82
f 71/145/63 79/125/69 93/144/83
f 71/145/63 93/144/83 72/146/64
f 92/143/82 71/145/63 72/146/64
f 92/147/82 72/148/64 69/149/61
f 67/150/59 90/151/80 69/149/61
f 92/147/82 69/149/61 90/151/80
f 90/151/80 67/150/59 88/152/78
f 88/152/78 67/150/59 94/153/84
f 67/150/59 66/154/58 94/153/84
f 94/153/84 66/154/58 86/155/76
f 66/154/58 65/156/57 86/155/76
f 86/155/76 65/156/57 84/157/74
f 65/156/57 64/158/56 84/157/74
f 84/157/74 64/158/56 82/159/72
f 64/158/56 63/160/55 82/159/72
f 82/159/72 63/160/55 80/161/70
f 63/160/55 62/162/54 80/161/70
f 80/161/70 62/162/54 68/163/60
f 62/162/54 61/164/53 68/163/60
f 61/164/53 59/116/51 68/163/60
f 60/115/52 68/163/60 59/116/51
f 59/117/51 70/165/62 58/118/50
f 61/166/53 70/165/62 59/117/51
f 62/167/54 70/165/62 61/166/53
f 70/165/62 62/167/54 81/168/71
f 62/167/54 63/169/55 81/168/71
f 81/168/71 63/169/55 83/170/73
f 63/169/55 64/171/56 83/170/73
f 83/170/73 64/171/56 85/172/75
f 64/171/56 65/173/57 85/172/75
f 85/172/75 65/173/57 87/174/77
f 65/173/57 66/175/58 87/174/77
f 87/174/77 66/175/58 95/176/85
f 66/175/58 67/177/59 95/176/85
f 95/176/85 67/177/59 89/178/79
f 91/179/81 89/178/79 67/177/59
f 67/177/59 69/180/61 91/179/81
f 91/179/81 69/180/61 93/181/83
f 93/181/83 69/180/61 72/182/64
