# Blender 5.1.1
# www.blender.org
mtllib copper_throwing_spear.mtl
o cube.004
v 0.031305 0.031250 0.165875
v 0.031305 0.031250 -2.834125
v 0.031305 -0.031250 0.165875
v 0.031305 -0.031250 -2.834125
v -0.031195 0.031250 -2.834125
v -0.031195 0.031250 0.165875
v -0.031195 -0.031250 -2.834125
v -0.031195 -0.031250 0.165875
v 0.045367 0.013256 0.853375
v 0.098401 0.021590 0.165875
v 0.045367 -0.013256 0.853375
v 0.098401 -0.021590 0.165875
v -0.098292 0.021590 0.165875
v -0.045258 0.013256 0.853375
v -0.098292 -0.021590 0.165875
v -0.045258 -0.013256 0.853375
v 0.040726 0.003409 0.848687
v 0.133398 0.016685 0.201339
v 0.040726 -0.003409 0.848687
v 0.133398 -0.016685 0.201339
v -0.133289 0.016685 0.201339
v -0.040617 0.005552 0.848687
v -0.133289 -0.016685 0.201339
v -0.040617 -0.005552 0.848687
v -0.010034 0.000000 0.939297
v 0.031305 -0.031250 -0.584400
v 0.031305 0.031250 -0.584400
v -0.031195 -0.031250 -0.584400
v -0.031195 0.031250 -0.584400
v -0.031195 -0.031250 -0.271550
v -0.031195 0.031250 -0.271550
v 0.031305 -0.031250 -0.271550
v 0.031305 0.031250 -0.271550
v 0.038979 -0.038925 -0.271550
v 0.038979 -0.038925 -0.584400
v 0.038979 0.038924 -0.271550
v 0.038979 0.038924 -0.584400
v -0.038870 -0.038925 -0.584400
v -0.038870 0.038924 -0.584400
v -0.038870 -0.038925 -0.271550
v -0.038870 0.038924 -0.271550
v -0.074968 -0.000000 0.245398
v 0.000055 0.075022 0.245398
v 0.000055 -0.075022 0.245398
v 0.075077 -0.000000 0.245398
v -0.074968 -0.000000 0.139841
v 0.000055 0.075022 0.139841
v 0.000055 -0.075022 0.139841
v 0.075077 -0.000000 0.139841
v -0.086808 -0.000000 0.220186
v 0.000055 0.086863 0.220186
v 0.000055 -0.086863 0.220186
v 0.086917 -0.000000 0.220186
v -0.086808 -0.000000 0.165053
v 0.000055 0.086863 0.165053
v 0.000055 -0.086863 0.165053
v 0.086917 -0.000000 0.165053
v -0.011756 0.021122 -0.219132
v -0.036918 0.017358 0.213447
v -0.013355 -0.014592 -0.209943
v -0.036918 -0.008584 0.213447
v -0.038548 -0.022413 -0.059043
v -0.019537 -0.014204 0.099931
v -0.053105 0.037307 -0.061851
v -0.030438 0.030755 0.099538
v -0.011756 0.021122 -0.219132
v -0.036918 0.017358 0.213447
v -0.013355 -0.014592 -0.209943
v -0.036918 -0.008584 0.213447
v -0.038548 -0.022413 -0.059043
v -0.019537 -0.014204 0.099931
v -0.053105 0.037307 -0.061851
v -0.030438 0.030755 0.099538
v 0.006639 0.023287 -0.219132
v -0.013815 0.038417 0.213447
v -0.019745 -0.000836 -0.209943
v -0.032158 0.020074 0.213447
v -0.043090 0.011448 -0.059043
v -0.023842 0.003810 0.099931
v -0.011155 0.063969 -0.061851
v 0.000241 0.043309 0.099538
v 0.006639 0.023287 -0.219132
v -0.013815 0.038417 0.213447
v -0.019745 -0.000836 -0.209943
v -0.032158 0.020074 0.213447
v -0.043090 0.011448 -0.059043
v -0.023842 0.003810 0.099931
v -0.011155 0.063969 -0.061851
v 0.000241 0.043309 0.099538
v 0.021176 0.011810 -0.219132
v 0.017412 0.036972 0.213447
v -0.014537 0.013409 -0.209943
v -0.008529 0.036972 0.213447
v -0.022358 0.038603 -0.059043
v -0.014149 0.019592 0.099931
v 0.037361 0.053159 -0.061851
v 0.030810 0.030492 0.099538
v 0.021176 0.011810 -0.219132
v 0.017412 0.036972 0.213447
v -0.014537 0.013409 -0.209943
v -0.008529 0.036972 0.213447
v -0.022358 0.038603 -0.059043
v -0.014149 0.019592 0.099931
v 0.037361 0.053159 -0.061851
v 0.030810 0.030492 0.099538
v 0.023341 -0.006584 -0.219132
v 0.038472 0.013870 0.213447
v -0.000782 0.019800 -0.209943
v 0.020128 0.032213 0.213447
v 0.011502 0.043145 -0.059043
v 0.003864 0.023897 0.099931
v 0.064024 0.011209 -0.061851
v 0.043363 -0.000186 0.099538
v 0.023341 -0.006584 -0.219132
v 0.038472 0.013870 0.213447
v -0.000782 0.019800 -0.209943
v 0.020128 0.032213 0.213447
v 0.011502 0.043145 -0.059043
v 0.003864 0.023897 0.099931
v 0.064024 0.011209 -0.061851
v 0.043363 -0.000186 0.099538
v 0.011865 -0.021122 -0.219132
v 0.037027 -0.017358 0.213447
v 0.013464 0.014592 -0.209943
v 0.037027 0.008584 0.213447
v 0.038657 0.022413 -0.059043
v 0.019646 0.014204 0.099931
v 0.053214 -0.037307 -0.061851
v 0.030547 -0.030755 0.099538
v 0.011865 -0.021122 -0.219132
v 0.037027 -0.017358 0.213447
v 0.013464 0.014592 -0.209943
v 0.037027 0.008584 0.213447
v 0.038657 0.022413 -0.059043
v 0.019646 0.014204 0.099931
v 0.053214 -0.037307 -0.061851
v 0.030547 -0.030755 0.099538
v -0.006529 -0.023287 -0.219132
v 0.013924 -0.038417 0.213447
v 0.019855 0.000836 -0.209943
v 0.032267 -0.020074 0.213447
v 0.043199 -0.011448 -0.059043
v 0.023952 -0.003810 0.099931
v 0.011264 -0.063969 -0.061851
v -0.000132 -0.043309 0.099538
v -0.006529 -0.023287 -0.219132
v 0.013924 -0.038417 0.213447
v 0.019855 0.000836 -0.209943
v 0.032267 -0.020074 0.213447
v 0.043199 -0.011448 -0.059043
v 0.023952 -0.003810 0.099931
v 0.011264 -0.063969 -0.061851
v -0.000132 -0.043309 0.099538
v -0.021067 -0.011811 -0.219132
v -0.017303 -0.036972 0.213447
v 0.014646 -0.013409 -0.209943
v 0.008638 -0.036972 0.213447
v 0.022468 -0.038603 -0.059043
v 0.014258 -0.019592 0.099931
v -0.037252 -0.053159 -0.061851
v -0.030701 -0.030492 0.099538
v -0.021067 -0.011811 -0.219132
v -0.017303 -0.036972 0.213447
v 0.014646 -0.013409 -0.209943
v 0.008638 -0.036972 0.213447
v 0.022468 -0.038603 -0.059043
v 0.014258 -0.019592 0.099931
v -0.037252 -0.053159 -0.061851
v -0.030701 -0.030492 0.099538
v -0.023232 0.006584 -0.219132
v -0.038362 -0.013870 0.213447
v 0.000891 -0.019800 -0.209943
v -0.020019 -0.032213 0.213447
v -0.011393 -0.043145 -0.059043
v -0.003755 -0.023897 0.099931
v -0.063915 -0.011209 -0.061851
v -0.043254 0.000186 0.099538
v -0.023232 0.006584 -0.219132
v -0.038362 -0.013870 0.213447
v 0.000891 -0.019800 -0.209943
v -0.020019 -0.032213 0.213447
v -0.011393 -0.043145 -0.059043
v -0.003755 -0.023897 0.099931
v -0.063915 -0.011209 -0.061851
v -0.043254 0.000186 0.099538
vn -0.0000 -0.0000 -1.0000
vn 1.0000 -0.0000 -0.0000
vn -0.0000 -0.0000 1.0000
vn -1.0000 -0.0000 -0.0000
vn -0.0000 1.0000 -0.0000
vn -0.0000 -1.0000 -0.0000
vn 0.9564 -0.2896 0.0384
vn 0.9970 -0.0000 0.0769
vn 0.8437 0.1022 0.5271
vn 0.4521 0.8880 -0.0843
vn -0.3355 0.8541 0.3973
vn -0.0000 0.9883 0.1525
vn -0.9970 -0.0000 0.0769
vn -0.8376 -0.2297 0.4956
vn -0.9906 0.1362 0.0076
vn -0.0000 0.9999 0.0121
vn -0.0000 -0.9999 0.0121
vn 0.1261 -0.9081 0.3994
vn -0.2892 -0.9452 -0.1517
vn 0.9899 -0.0000 0.1417
vn -0.9899 -0.0000 0.1417
vn 0.0062 0.9998 0.0188
vn 0.0062 -0.9998 0.0188
vn -0.9253 -0.0000 0.3793
vn -0.0000 -0.9883 0.1525
vn 0.8404 -0.0000 0.5419
vn -0.7071 0.7071 -0.0000
vn 0.7071 0.7071 -0.0000
vn -0.7071 -0.7071 -0.0000
vn 0.7071 -0.7071 -0.0000
vn -0.9810 -0.1938 0.0127
vn -0.9825 -0.1516 -0.1083
vn -0.9806 -0.1951 0.0165
vn -0.9662 -0.1569 -0.2044
vn -0.9797 -0.1976 -0.0351
vn -0.9797 -0.1966 -0.0397
vn 0.9810 0.1938 -0.0127
vn 0.9806 0.1951 -0.0165
vn 0.9825 0.1516 0.1083
vn 0.9662 0.1569 0.2044
vn 0.9797 0.1966 0.0397
vn 0.9797 0.1976 0.0351
vn -0.8307 0.5566 0.0127
vn -0.8020 0.5875 -0.1083
vn -0.8314 0.5555 0.0165
vn -0.7942 0.5723 -0.2044
vn -0.8325 0.5530 -0.0351
vn -0.8318 0.5537 -0.0397
vn 0.8307 -0.5566 -0.0127
vn 0.8314 -0.5555 -0.0165
vn 0.8020 -0.5875 0.1083
vn 0.7942 -0.5723 0.2044
vn 0.8318 -0.5537 0.0397
vn 0.8325 -0.5530 0.0351
vn -0.1938 0.9810 0.0127
vn -0.1516 0.9825 -0.1083
vn -0.1951 0.9806 0.0165
vn -0.1569 0.9662 -0.2044
vn -0.1976 0.9797 -0.0351
vn -0.1966 0.9797 -0.0397
vn 0.1938 -0.9810 -0.0127
vn 0.1951 -0.9806 -0.0165
vn 0.1516 -0.9825 0.1083
vn 0.1569 -0.9662 0.2044
vn 0.1966 -0.9797 0.0397
vn 0.1976 -0.9797 0.0351
vn 0.5566 0.8307 0.0127
vn 0.5875 0.8020 -0.1083
vn 0.5555 0.8314 0.0165
vn 0.5723 0.7942 -0.2044
vn 0.5530 0.8325 -0.0351
vn 0.5537 0.8318 -0.0397
vn -0.5566 -0.8307 -0.0127
vn -0.5555 -0.8314 -0.0165
vn -0.5875 -0.8020 0.1083
vn -0.5723 -0.7942 0.2044
vn -0.5537 -0.8318 0.0397
vn -0.5530 -0.8325 0.0351
vn 0.9810 0.1938 0.0127
vn 0.9825 0.1516 -0.1083
vn 0.9806 0.1951 0.0165
vn 0.9662 0.1569 -0.2044
vn 0.9797 0.1976 -0.0351
vn 0.9797 0.1966 -0.0397
vn -0.9810 -0.1938 -0.0127
vn -0.9806 -0.1951 -0.0165
vn -0.9825 -0.1516 0.1083
vn -0.9662 -0.1569 0.2044
vn -0.9797 -0.1966 0.0397
vn -0.9797 -0.1976 0.0351
vn 0.8307 -0.5566 0.0127
vn 0.8020 -0.5875 -0.1083
vn 0.8314 -0.5555 0.0165
vn 0.7942 -0.5723 -0.2044
vn 0.8325 -0.5530 -0.0351
vn 0.8318 -0.5537 -0.0397
vn -0.8307 0.5566 -0.0127
vn -0.8314 0.5555 -0.0165
vn -0.8020 0.5875 0.1083
vn -0.7942 0.5723 0.2044
vn -0.8318 0.5537 0.0397
vn -0.8325 0.5530 0.0351
vn 0.1938 -0.9810 0.0127
vn 0.1516 -0.9825 -0.1083
vn 0.1951 -0.9806 0.0165
vn 0.1569 -0.9662 -0.2044
vn 0.1976 -0.9797 -0.0351
vn 0.1966 -0.9797 -0.0397
vn -0.1938 0.9810 -0.0127
vn -0.1951 0.9806 -0.0165
vn -0.1516 0.9825 0.1083
vn -0.1569 0.9662 0.2044
vn -0.1966 0.9797 0.0397
vn -0.1976 0.9797 0.0351
vn -0.5566 -0.8307 0.0127
vn -0.5875 -0.8020 -0.1083
vn -0.5555 -0.8314 0.0165
vn -0.5723 -0.7942 -0.2044
vn -0.5530 -0.8325 -0.0351
vn -0.5537 -0.8318 -0.0397
vn 0.5566 0.8307 -0.0127
vn 0.5555 0.8314 -0.0165
vn 0.5875 0.8020 0.1083
vn 0.5723 0.7942 0.2044
vn 0.5537 0.8318 0.0397
vn 0.5530 0.8325 0.0351
vt 0.187500 0.812500
vt 0.250000 0.812500
vt 0.250000 0.875000
vt 0.187500 0.875000
vt 0.375137 0.937500
vt 1.000000 0.937500
vt 1.000000 1.000000
vt 0.375137 1.000000
vt 0.187500 0.750000
vt 0.250000 0.750000
vt 0.781288 0.875000
vt 1.000000 0.875000
vt 0.781288 0.937500
vt 0.562500 0.874863
vt 0.500000 0.874863
vt 0.500000 0.250000
vt 0.562500 0.250000
vt 0.125000 0.656288
vt 0.062500 0.656288
vt 0.062500 0.875000
vt 0.125000 0.875000
vt 0.312500 0.656250
vt 0.343750 0.656250
vt 0.343750 0.687500
vt 0.312500 0.687500
vt 0.125000 0.718750
vt 0.468750 0.718750
vt 0.468750 0.750000
vt 0.125000 0.750000
vt 0.135853 0.660282
vt 0.174208 0.658460
vt 0.153671 0.666718
vt 0.125000 0.687500
vt 0.468750 0.687500
vt 0.156250 0.687500
vt 0.125000 0.343750
vt 0.156250 0.343750
vt 0.187500 0.343750
vt 0.187500 0.687500
vt 0.312500 0.625000
vt 0.343750 0.625000
vt 0.174208 0.674977
vt 0.135853 0.673154
vt 0.625000 0.250000
vt 0.625000 0.874863
vt 0.249777 0.938069
vt 0.249777 0.999469
vt 0.219077 0.999469
vt 0.219077 0.938069
vt 0.000000 0.875000
vt 0.624863 0.875000
vt 0.624863 0.937500
vt 0.000000 0.937500
vt 0.366954 0.982420
vt 0.366954 0.966703
vt 0.368884 0.964773
vt 0.368884 0.984350
vt 0.218712 0.937500
vt 0.218712 1.000000
vt 0.000000 1.000000
vt 0.000000 0.657441
vt 0.062500 0.657441
vt 0.249521 0.998871
vt 0.249521 0.938656
vt 0.219414 0.938656
vt 0.219414 0.998871
vt 0.062576 0.656429
vt 0.125076 0.656429
vt 0.125076 0.625179
vt 0.062576 0.625179
vt 0.062500 0.654442
vt 0.000000 0.654442
vt 0.000000 0.501572
vt 0.062500 0.501572
vt 0.125000 0.501572
vt 0.106523 0.523185
vt 0.014571 0.523185
vt 0.003279 0.511894
vt 0.117814 0.511894
vt 0.000076 0.625179
vt 0.000076 0.655241
vt 0.062576 0.655241
vt 0.351237 0.966703
vt 0.351237 0.982420
vt 0.349307 0.984350
vt 0.349307 0.964773
vt 0.020021 0.641342
vt 0.107140 0.641342
vt 0.117837 0.652039
vt 0.009324 0.652039
vt 0.625901 0.813430
vt 0.686277 0.813430
vt 0.686277 0.873807
vt 0.625901 0.873807
vt 0.686096 0.811456
vt 0.625704 0.811456
vt 0.625704 0.751064
vt 0.686096 0.751064
vt 0.688037 0.813612
vt 0.748586 0.813612
vt 0.748586 0.874471
vt 0.688037 0.874471
vt 0.689329 0.752890
vt 0.748132 0.752890
vt 0.748132 0.811994
vt 0.689329 0.811994
vt 0.689828 0.815143
vt 0.747057 0.815143
vt 0.747057 0.872665
vt 0.689828 0.872665
vt 0.688040 0.751601
vt 0.749301 0.751601
vt 0.749301 0.813176
vt 0.688040 0.813176
vt 0.625569 0.751093
vt 0.686994 0.751093
vt 0.686994 0.812519
vt 0.625569 0.812519
vt 0.686860 0.874440
vt 0.625674 0.874440
vt 0.625674 0.813254
vt 0.686860 0.813254
vt 0.721333 0.753285
vt 0.746556 0.753285
vt 0.746556 0.809485
vt 0.721333 0.809485
vt 0.693070 0.754228
vt 0.717449 0.754228
vt 0.717449 0.808547
vt 0.693070 0.808547
vt 0.693908 0.820026
vt 0.714963 0.820026
vt 0.714963 0.866940
vt 0.693908 0.866940
vt 0.721332 0.817352
vt 0.745922 0.817352
vt 0.745922 0.872142
vt 0.721332 0.872142
vt 0.970160 0.845009
vt 0.998378 0.845009
vt 0.998378 0.873827
vt 0.970160 0.873827
vt 0.913496 0.855025
vt 0.931394 0.855025
vt 0.931394 0.865764
vt 0.913496 0.865764
vt 0.942079 0.846361
vt 0.961324 0.846361
vt 0.961324 0.872475
vt 0.942079 0.872474
s 1
usemtl Material
f 4/1/1 7/2/1 5/3/1 2/4/1
f 26/5/2 4/6/2 2/7/2 27/8/2
f 8/9/3 3/10/3 1/2/3 6/1/3
f 30/11/4 8/12/4 6/6/4 31/13/4
f 29/14/5 27/15/5 2/16/5 5/17/5
f 30/18/6 32/19/6 3/20/6 8/21/6
f 12/22/1 15/23/1 13/24/1 10/25/1
f 11/26/7 12/27/8 10/28/8 9/29/9
f 9/30/10 14/31/11 25/32/12
f 15/33/13 16/34/14 14/27/15 13/26/13
f 14/35/11 9/33/10 10/36/16 13/37/16
f 15/38/17 12/37/17 11/35/18 16/39/19
f 20/22/1 23/23/1 21/24/1 18/25/1
f 19/26/20 20/27/20 18/28/20 17/29/20
f 24/40/3 19/41/3 17/23/3 22/22/3
f 23/33/21 24/34/21 22/27/21 21/26/21
f 22/35/22 17/33/22 18/36/22 21/37/22
f 23/38/23 20/37/23 19/35/23 24/39/23
f 14/31/15 16/42/14 25/32/24
f 16/42/19 11/43/18 25/32/25
f 11/43/7 9/30/9 25/32/26
f 7/44/6 4/17/6 26/14/6 28/45/6
f 30/46/3 31/47/3 41/48/3 40/49/3
f 7/50/4 28/51/4 29/52/4 5/53/4
f 29/54/1 28/55/1 38/56/1 39/57/1
f 3/53/2 32/58/2 33/59/2 1/60/2
f 6/20/5 1/50/5 33/61/5 31/62/5
f 33/63/3 32/64/3 34/65/3 36/66/3
f 32/67/3 30/68/3 40/69/3 34/70/3
f 41/71/5 36/72/5 37/73/5 39/74/5
f 34/58/2 35/5/2 37/8/2 36/59/2
f 38/75/6 35/74/6 34/19/6 40/18/6
f 38/51/4 40/11/4 41/13/4 39/52/4
f 28/76/1 26/77/1 35/78/1 38/79/1
f 31/70/3 33/80/3 36/81/3 41/82/3
f 26/83/1 27/84/1 37/85/1 35/86/1
f 27/87/1 29/88/1 39/89/1 37/90/1
f 42/91/3 44/92/3 45/93/3 43/94/3
f 46/95/1 47/96/1 49/97/1 48/98/1
f 43/99/27 47/100/27 46/101/27 42/102/27
f 45/103/28 49/104/28 47/105/28 43/106/28
f 42/107/29 46/108/29 48/109/29 44/110/29
f 44/111/30 48/112/30 49/113/30 45/114/30
f 50/115/3 52/116/3 53/117/3 51/118/3
f 54/119/1 55/120/1 57/121/1 56/122/1
f 51/123/27 55/124/27 54/125/27 50/126/27
f 53/127/28 57/128/28 55/129/28 51/130/28
f 50/131/29 54/132/29 56/133/29 52/134/29
f 52/135/30 56/136/30 57/137/30 53/138/30
f 63/139/31 61/140/32 59/141/32 65/142/33
f 60/143/34 62/144/35 64/145/36 58/146/34
f 62/147/35 63/148/31 65/149/33 64/150/36
f 71/139/37 73/142/38 67/141/39 69/140/39
f 68/143/40 66/146/40 72/145/41 70/144/42
f 70/147/42 72/150/41 73/149/38 71/148/37
f 79/139/43 77/140/44 75/141/44 81/142/45
f 76/143/46 78/144/47 80/145/48 74/146/46
f 78/147/47 79/148/43 81/149/45 80/150/48
f 87/139/49 89/142/50 83/141/51 85/140/51
f 84/143/52 82/146/52 88/145/53 86/144/54
f 86/147/54 88/150/53 89/149/50 87/148/49
f 95/139/55 93/140/56 91/141/56 97/142/57
f 92/143/58 94/144/59 96/145/60 90/146/58
f 94/147/59 95/148/55 97/149/57 96/150/60
f 103/139/61 105/142/62 99/141/63 101/140/63
f 100/143/64 98/146/64 104/145/65 102/144/66
f 102/147/66 104/150/65 105/149/62 103/148/61
f 111/139/67 109/140/68 107/141/68 113/142/69
f 108/143/70 110/144/71 112/145/72 106/146/70
f 110/147/71 111/148/67 113/149/69 112/150/72
f 119/139/73 121/142/74 115/141/75 117/140/75
f 116/143/76 114/146/76 120/145/77 118/144/78
f 118/147/78 120/150/77 121/149/74 119/148/73
f 127/139/79 125/140/80 123/141/80 129/142/81
f 124/143/82 126/144/83 128/145/84 122/146/82
f 126/147/83 127/148/79 129/149/81 128/150/84
f 135/139/85 137/142/86 131/141/87 133/140/87
f 132/143/88 130/146/88 136/145/89 134/144/90
f 134/147/90 136/150/89 137/149/86 135/148/85
f 143/139/91 141/140/92 139/141/92 145/142/93
f 140/143/94 142/144/95 144/145/96 138/146/94
f 142/147/95 143/148/91 145/149/93 144/150/96
f 151/139/97 153/142/98 147/141/99 149/140/99
f 148/143/100 146/146/100 152/145/101 150/144/102
f 150/147/102 152/150/101 153/149/98 151/148/97
f 159/139/103 157/140/104 155/141/104 161/142/105
f 156/143/106 158/144/107 160/145/108 154/146/106
f 158/147/107 159/148/103 161/149/105 160/150/108
f 167/139/109 169/142/110 163/141/111 165/140/111
f 164/143/112 162/146/112 168/145/113 166/144/114
f 166/147/114 168/150/113 169/149/110 167/148/109
f 175/139/115 173/140/116 171/141/116 177/142/117
f 172/143/118 174/144/119 176/145/120 170/146/118
f 174/147/119 175/148/115 177/149/117 176/150/120
f 183/139/121 185/142/122 179/141/123 181/140/123
f 180/143/124 178/146/124 184/145/125 182/144/126
f 182/147/126 184/150/125 185/149/122 183/148/121
