# Blender 5.1.1
# www.blender.org
mtllib tnt_throwing_spear.mtl
o tnt
v 0.031305 0.031250 -0.227722
v 0.031305 0.031250 -2.834125
v 0.031305 -0.031250 -0.227722
v 0.031305 -0.031250 -2.834125
v -0.031195 0.031250 -2.834125
v -0.031195 0.031250 -0.227722
v -0.031195 -0.031250 -2.834125
v -0.031195 -0.031250 -0.227722
v 0.031305 -0.031250 -0.741678
v 0.031305 0.031250 -0.741678
v -0.031195 -0.031250 -0.741678
v -0.031195 0.031250 -0.741678
v -0.031195 -0.031250 -0.428827
v -0.031195 0.031250 -0.428827
v 0.031305 -0.031250 -0.428827
v 0.031305 0.031250 -0.428827
v 0.038979 -0.038925 -0.428827
v 0.038979 -0.038925 -0.741678
v 0.038979 0.038924 -0.428827
v 0.038979 0.038924 -0.741678
v -0.038870 -0.038925 -0.741678
v -0.038870 0.038924 -0.741678
v -0.038870 -0.038925 -0.428827
v -0.038870 0.038924 -0.428827
v -0.074968 -0.000000 -0.148198
v 0.000055 0.075022 -0.148198
v 0.000055 -0.075022 -0.148198
v 0.075077 -0.000000 -0.148198
v -0.074968 -0.000000 -0.253756
v 0.000055 0.075022 -0.253756
v 0.000055 -0.075022 -0.253756
v 0.075077 -0.000000 -0.253756
v -0.086808 -0.000000 -0.173411
v 0.000055 0.086863 -0.173411
v 0.000055 -0.086863 -0.173411
v 0.086917 -0.000000 -0.173411
v -0.086808 -0.000000 -0.228543
v 0.000055 0.086863 -0.228543
v 0.000055 -0.086863 -0.228543
v 0.086917 -0.000000 -0.228543
v -0.074968 -0.000000 0.308384
v 0.000055 0.075022 0.308384
v 0.000055 -0.075022 0.308384
v 0.075077 -0.000000 0.308384
v -0.074968 -0.000000 0.202826
v 0.000055 0.075022 0.202826
v 0.000055 -0.075022 0.202826
v 0.075077 -0.000000 0.202826
v -0.086808 -0.000000 0.283171
v 0.000055 0.086863 0.283171
v 0.000055 -0.086863 0.283171
v 0.086917 -0.000000 0.283171
v -0.086808 -0.000000 0.228039
v 0.000055 0.086863 0.228039
v 0.000055 -0.086863 0.228039
v 0.086917 -0.000000 0.228039
v -0.029857 0.029912 0.340652
v 0.029967 0.029912 0.340652
v -0.029857 -0.029912 0.340652
v 0.029967 -0.029912 0.340652
v -0.029857 0.029912 0.303394
v 0.029967 0.029912 0.303394
v -0.029857 -0.029912 0.303394
v 0.029967 -0.029912 0.303394
v -0.186208 0.186208 0.230656
v -0.186208 0.186208 -0.177595
v -0.186208 -0.186208 0.230656
v -0.186208 -0.186208 -0.177595
v 0.186208 0.186208 0.230656
v 0.186208 0.186208 -0.177595
v 0.186208 -0.186208 0.230656
v 0.186208 -0.186208 -0.177595
v -0.204125 -0.204125 0.230656
v -0.204125 0.204125 0.230656
v -0.204125 0.204125 -0.177595
v -0.204125 -0.204125 -0.177595
v 0.204125 -0.204125 0.230656
v 0.204125 -0.204125 -0.177595
v 0.204125 0.204125 0.230656
v 0.204125 0.204125 -0.177595
vn -0.0000 -0.0000 -1.0000
vn 1.0000 -0.0000 -0.0000
vn -0.0000 -0.0000 1.0000
vn -1.0000 -0.0000 -0.0000
vn -0.0000 1.0000 -0.0000
vn -0.0000 -1.0000 -0.0000
vn -0.7071 0.7071 -0.0000
vn 0.7071 0.7071 -0.0000
vn -0.7071 -0.7071 -0.0000
vn 0.7071 -0.7071 -0.0000
vt 0.187500 0.812500
vt 0.250000 0.812500
vt 0.250000 0.875000
vt 0.187500 0.875000
vt 0.375137 0.937500
vt 1.000000 0.937500
vt 1.000000 1.000000
vt 0.375137 1.000000
vt 0.187500 0.750000
vt 0.250000 0.750000
vt 0.781288 0.875000
vt 1.000000 0.875000
vt 0.781288 0.937500
vt 0.000069 0.062431
vt 0.000069 -0.000069
vt 0.624931 -0.000069
vt 0.624931 0.062431
vt 0.125000 0.656288
vt 0.062500 0.656288
vt 0.062500 0.875000
vt 0.125000 0.875000
vt 0.624931 0.124931
vt 0.000069 0.124931
vt 0.249777 0.938069
vt 0.249777 0.999469
vt 0.219077 0.999469
vt 0.219077 0.938069
vt 0.000000 0.875000
vt 0.624863 0.875000
vt 0.624863 0.937500
vt 0.000000 0.937500
vt 0.366954 0.982420
vt 0.366954 0.966703
vt 0.368884 0.964773
vt 0.368884 0.984350
vt 0.218712 0.937500
vt 0.218712 1.000000
vt 0.000000 1.000000
vt 0.000000 0.657441
vt 0.062500 0.657441
vt 0.249521 0.998871
vt 0.249521 0.938656
vt 0.219414 0.938656
vt 0.219414 0.998871
vt 0.062576 0.656429
vt 0.125076 0.656429
vt 0.125076 0.625179
vt 0.062576 0.625179
vt 0.062500 0.654442
vt 0.000000 0.654442
vt 0.000000 0.501572
vt 0.062500 0.501572
vt 0.125000 0.501572
vt 0.106523 0.523185
vt 0.014571 0.523185
vt 0.003279 0.511894
vt 0.117814 0.511894
vt 0.000076 0.625179
vt 0.000076 0.655241
vt 0.062576 0.655241
vt 0.351237 0.966703
vt 0.351237 0.982420
vt 0.349307 0.984350
vt 0.349307 0.964773
vt 0.020021 0.641342
vt 0.107140 0.641342
vt 0.117837 0.652039
vt 0.009324 0.652039
vt 0.625901 0.813430
vt 0.686277 0.813430
vt 0.686277 0.873807
vt 0.625901 0.873807
vt 0.686096 0.811456
vt 0.625704 0.811456
vt 0.625704 0.751064
vt 0.686096 0.751064
vt 0.688037 0.813612
vt 0.748586 0.813612
vt 0.748586 0.874471
vt 0.688037 0.874471
vt 0.689329 0.752890
vt 0.748132 0.752890
vt 0.748132 0.811994
vt 0.689329 0.811994
vt 0.689828 0.815143
vt 0.747057 0.815143
vt 0.747057 0.872665
vt 0.689828 0.872665
vt 0.688040 0.751601
vt 0.749301 0.751601
vt 0.749301 0.813176
vt 0.688040 0.813176
vt 0.625569 0.751093
vt 0.686994 0.751093
vt 0.686994 0.812519
vt 0.625569 0.812519
vt 0.686860 0.874440
vt 0.625674 0.874440
vt 0.625674 0.813254
vt 0.686860 0.813254
vt 0.721333 0.753285
vt 0.746556 0.753285
vt 0.746556 0.809485
vt 0.721333 0.809485
vt 0.693070 0.754228
vt 0.717449 0.754228
vt 0.717449 0.808547
vt 0.693070 0.808547
vt 0.693908 0.820026
vt 0.714963 0.820026
vt 0.714963 0.866940
vt 0.693908 0.866940
vt 0.721332 0.817352
vt 0.745922 0.817352
vt 0.745922 0.872142
vt 0.721332 0.872142
vt 0.940432 0.840479
vt 0.940432 0.782920
vt 0.997991 0.782920
vt 0.997991 0.840479
vt 0.997991 0.826039
vt 0.997991 0.790191
vt 0.940432 0.790191
vt 0.940432 0.826039
vt 0.500000 0.625000
vt 0.500000 0.125000
vt 1.000000 0.125000
vt 1.000000 0.625000
vt 0.500000 0.625000
vt 0.500000 0.125000
vt 1.000000 0.125000
vt 1.000000 0.625000
vt 0.500000 0.625000
vt 0.500000 0.125000
vt 1.000000 0.125000
vt 1.000000 0.625000
vt 0.500000 0.625000
vt 0.500000 0.125000
vt 1.000000 0.125000
vt 1.000000 0.625000
vt 0.846180 0.628352
vt 0.998186 0.628352
vt 0.998186 0.780358
vt 0.846180 0.780358
vt 0.675559 0.134051
vt 0.675559 0.272987
vt 0.668875 0.279671
vt 0.668875 0.127367
vt 0.814495 0.272987
vt 0.814495 0.134051
vt 0.821179 0.127367
vt 0.821179 0.279671
s 1
usemtl TNTMaterial
f 4/1/1 7/2/1 5/3/1 2/4/1
f 9/5/2 4/6/2 2/7/2 10/8/2
f 8/9/3 3/10/3 1/2/3 6/1/3
f 13/11/4 8/12/4 6/6/4 14/13/4
f 12/14/5 10/15/5 2/16/5 5/17/5
f 13/18/6 15/19/6 3/20/6 8/21/6
f 7/22/6 4/17/6 9/14/6 11/23/6
f 13/24/3 14/25/3 24/26/3 23/27/3
f 7/28/4 11/29/4 12/30/4 5/31/4
f 12/32/1 11/33/1 21/34/1 22/35/1
f 3/31/2 15/36/2 16/37/2 1/38/2
f 6/20/5 1/28/5 16/39/5 14/40/5
f 16/41/3 15/42/3 17/43/3 19/44/3
f 15/45/3 13/46/3 23/47/3 17/48/3
f 24/49/5 19/50/5 20/51/5 22/52/5
f 17/36/2 18/5/2 20/8/2 19/37/2
f 21/53/6 18/52/6 17/19/6 23/18/6
f 21/29/4 23/11/4 24/13/4 22/30/4
f 11/54/1 9/55/1 18/56/1 21/57/1
f 14/48/3 16/58/3 19/59/3 24/60/3
f 9/61/1 10/62/1 20/63/1 18/64/1
f 10/65/1 12/66/1 22/67/1 20/68/1
f 25/69/3 27/70/3 28/71/3 26/72/3
f 29/73/1 30/74/1 32/75/1 31/76/1
f 26/77/7 30/78/7 29/79/7 25/80/7
f 28/81/8 32/82/8 30/83/8 26/84/8
f 25/85/9 29/86/9 31/87/9 27/88/9
f 27/89/10 31/90/10 32/91/10 28/92/10
f 33/93/3 35/94/3 36/95/3 34/96/3
f 37/97/1 38/98/1 40/99/1 39/100/1
f 34/101/7 38/102/7 37/103/7 33/104/7
f 36/105/8 40/106/8 38/107/8 34/108/8
f 33/109/9 37/110/9 39/111/9 35/112/9
f 35/113/10 39/114/10 40/115/10 36/116/10
f 41/69/3 43/70/3 44/71/3 42/72/3
f 45/73/1 46/74/1 48/75/1 47/76/1
f 42/77/7 46/78/7 45/79/7 41/80/7
f 44/81/8 48/82/8 46/83/8 42/84/8
f 41/85/9 45/86/9 47/87/9 43/88/9
f 43/89/10 47/90/10 48/91/10 44/92/10
f 49/93/3 51/94/3 52/95/3 50/96/3
f 53/97/1 54/98/1 56/99/1 55/100/1
f 50/101/7 54/102/7 53/103/7 49/104/7
f 52/105/8 56/106/8 54/107/8 50/108/8
f 49/109/9 53/110/9 55/111/9 51/112/9
f 51/113/10 55/114/10 56/115/10 52/116/10
f 57/117/3 59/118/3 60/119/3 58/120/3
f 58/121/5 62/122/5 61/123/5 57/124/5
f 60/124/2 64/123/2 62/122/2 58/121/2
f 57/121/4 61/122/4 63/123/4 59/124/4
f 59/124/6 63/123/6 64/122/6 60/121/6
s 0
f 74/125/4 75/126/4 76/127/4 73/128/4
f 73/129/6 76/130/6 78/131/6 77/132/6
f 77/133/2 78/134/2 80/135/2 79/136/2
f 79/137/5 80/138/5 75/139/5 74/140/5
f 67/141/3 71/142/3 69/143/3 65/144/3
f 72/141/1 68/142/1 66/143/1 70/144/1
f 67/145/3 65/146/3 74/147/3 73/148/3
f 66/149/1 68/150/1 76/151/1 75/152/1
f 71/150/3 67/145/3 73/148/3 77/151/3
f 68/150/1 72/145/1 78/148/1 76/151/1
f 69/149/3 71/150/3 77/151/3 79/152/3
f 72/145/1 70/146/1 80/147/1 78/148/1
f 65/146/3 69/149/3 79/152/3 74/147/3
f 70/146/1 66/149/1 75/152/1 80/147/1
