# Blender 5.1.1
# www.blender.org
mtllib ion_jet_b1.mtl
o Bottom1
v 0.796898 -0.048708 0.209053
v 0.208508 -0.048708 0.209053
v 0.091665 0.292244 0.914285
v 0.208507 -0.048708 0.797443
v 0.796898 -0.048708 0.797443
v 0.913740 0.292244 0.914285
v 0.913740 0.292244 0.092211
v 0.091666 0.292244 0.092211
vn -0.9460 -0.3242 -0.0000
vn 0.9460 -0.3242 -0.0000
vn -0.0000 -0.3242 -0.9460
vn -0.0000 -0.3242 0.9460
vt 0.000181 0.998696
vt 0.311382 0.998696
vt 0.312074 0.875542
vt 0.000486 0.875542
s 1
usemtl Material
f 3/1/1 8/2/1 2/3/1 4/4/1
f 7/1/2 6/2/2 5/3/2 1/4/2
f 8/1/3 7/2/3 1/3/3 2/4/3
f 6/1/4 3/2/4 4/3/4 5/4/4
