# Blender 5.1.1
# www.blender.org
o ThrustLarge2
v 1.000000 0.500000 0.000000
v 0.951688 -0.168513 0.048312
v 1.000000 0.500000 1.000000
v 0.951688 -0.168513 0.951688
v 0.000000 0.500000 0.000000
v 0.048312 -0.168513 0.048312
v 0.000000 0.500000 1.000000
v 0.048312 -0.168513 0.951688
v 0.843258 -1.398693 0.156742
v 0.843258 -1.398693 0.843258
v 0.156742 -1.398693 0.156742
v 0.156742 -1.398693 0.843258
v 0.620105 -2.554005 0.379895
v 0.620105 -2.554005 0.620105
v 0.379895 -2.554005 0.379895
v 0.379895 -2.554005 0.620105
v 0.500000 -2.961361 0.500000
v 0.235547 -1.957175 0.235547
v 0.235547 -1.957175 0.764453
v 0.764453 -1.957175 0.764453
v 0.764453 -1.957175 0.235547
v 0.900454 -0.844895 0.099546
v 0.099546 -0.844895 0.099546
v 0.099546 -0.844895 0.900454
v 0.900454 -0.844895 0.900454
v 0.500000 -0.168513 -0.080303
v 0.500000 0.500000 1.142372
v 0.500000 -0.168513 1.080303
v 0.500000 0.500000 -0.142372
v 0.500000 -1.398693 0.059001
v 0.500000 -1.398693 0.940999
v 0.500000 -2.554005 0.345696
v 0.500000 -2.554005 0.654304
v 0.500000 -1.957175 0.839754
v 0.500000 -1.957175 0.160246
v 0.500000 -0.844895 1.014481
v 0.500000 -0.844895 -0.014481
v -0.080303 -0.168513 0.500000
v 1.142372 0.500000 0.500000
v -0.142372 0.500000 0.500000
v 1.080303 -0.168513 0.500000
v 0.059001 -1.398693 0.500000
v 0.940999 -1.398693 0.500000
v 0.345696 -2.554005 0.500000
v 0.654304 -2.554005 0.500000
v 0.839754 -1.957175 0.500000
v 0.160246 -1.957175 0.500000
v 1.014481 -0.844895 0.500000
v -0.014481 -0.844895 0.500000
vn 0.7034 -0.1017 -0.7034
vn 0.7033 -0.1040 -0.7033
vn 0.7034 -0.1017 0.7034
vn 0.7033 -0.1040 0.7033
vn -0.7034 -0.1017 -0.7034
vn -0.7033 -0.1040 -0.7033
vn -0.7034 -0.1017 0.7034
vn -0.7033 -0.1040 0.7033
vn 0.6970 -0.1688 -0.6970
vn 0.6970 -0.1688 0.6970
vn -0.6970 -0.1688 -0.6970
vn -0.6970 -0.1688 0.6970
vn 0.6621 -0.3511 -0.6621
vn 0.6621 -0.3511 0.6621
vn -0.6621 -0.3511 -0.6621
vn -0.6621 -0.3511 0.6621
vn -0.0000 -1.0000 -0.0000
vn -0.6837 -0.2552 -0.6837
vn -0.6837 -0.2552 0.6837
vn 0.6837 -0.2552 0.6837
vn 0.6837 -0.2552 -0.6837
vn 0.7016 -0.1248 -0.7016
vn -0.7016 -0.1248 -0.7016
vn -0.7016 -0.1248 0.7016
vn 0.7016 -0.1248 0.7016
vn -0.0000 -0.0946 -0.9955
vn -0.0000 -0.0924 0.9957
vn -0.0000 -0.0946 0.9955
vn -0.0000 -0.0924 -0.9957
vn -0.0000 -0.1544 -0.9880
vn -0.0000 -0.1544 0.9880
vn -0.0000 -0.3240 -0.9461
vn -0.0000 -0.3240 0.9461
vn -0.0000 -0.2356 0.9719
vn -0.0000 -0.2356 -0.9719
vn -0.0000 -0.1139 0.9935
vn -0.0000 -0.1139 -0.9935
vn -0.9955 -0.0946 -0.0000
vn 0.9957 -0.0924 -0.0000
vn -0.9957 -0.0924 -0.0000
vn 0.9955 -0.0946 -0.0000
vn -0.9880 -0.1544 -0.0000
vn 0.9880 -0.1544 -0.0000
vn -0.9461 -0.3240 -0.0000
vn 0.9461 -0.3240 -0.0000
vn 0.9719 -0.2356 -0.0000
vn -0.9719 -0.2356 -0.0000
vn 0.9935 -0.1139 -0.0000
vn -0.9935 -0.1139 -0.0000
vt 0.459339 0.875000
vt 0.625000 0.875000
vt 0.625000 1.000000
vt 0.459339 1.000000
vt 0.459339 0.125000
vt 0.625000 0.125000
vt 0.625000 0.250000
vt 0.459339 0.250000
vt 0.386694 0.375000
vt 0.386694 0.500000
vt 0.375000 0.500000
vt 0.375000 0.375000
vt 0.459339 0.625000
vt 0.625000 0.625000
vt 0.625000 0.750000
vt 0.459339 0.750000
vt 0.459339 0.375000
vt 0.625000 0.375000
vt 0.625000 0.500000
vt 0.459339 0.500000
vt 0.375000 0.125000
vt 0.375000 0.250000
vt 0.386694 0.875000
vt 0.386694 1.000000
vt 0.375000 1.000000
vt 0.375000 0.875000
vt 0.386694 0.125000
vt 0.386694 0.250000
vt 0.386694 0.625000
vt 0.386694 0.750000
vt 0.375000 0.750000
vt 0.375000 0.625000
vt 0.000000 0.000000
vt 0.375000 0.000000
vt 0.459339 0.000000
vt 0.386694 0.000000
vt 0.625000 0.000000
s 1
f 28/1/28 27/2/27 7/3/7 8/4/8
f 38/5/38 40/6/40 5/7/5 6/8/6
f 37/9/37 22/10/22 9/11/9 30/12/30
f 41/13/41 39/14/39 3/15/3 4/16/4
f 26/17/26 29/18/29 1/19/1 2/20/2
f 47/21/47 18/22/18 15/22/15 44/21/44
f 36/23/36 24/24/24 12/25/12 31/26/31
f 49/27/49 23/28/23 11/22/11 42/21/42
f 48/29/48 25/30/25 10/31/10 43/32/43
f 44/21/44 17/33/17 16/34/16
f 46/32/46 20/31/20 14/31/14 45/32/45
f 35/12/35 21/11/21 13/11/13 32/12/32
f 34/26/34 19/25/19 16/25/16 33/26/33
f 15/22/15 17/33/17 44/21/44
f 32/12/32 17/33/17 15/22/15
f 13/11/13 17/33/17 32/12/32
f 31/26/31 12/25/12 19/25/19 34/26/34
f 30/12/30 9/11/9 21/11/21 35/12/35
f 43/32/43 10/31/10 20/31/20 46/32/46
f 42/21/42 11/22/11 18/22/18 47/21/47
f 41/13/41 4/16/4 25/30/25 48/29/48
f 38/5/38 6/8/6 23/28/23 49/27/49
f 28/1/28 8/4/8 24/24/24 36/23/36
f 26/17/26 2/20/2 22/10/22 37/9/37
f 6/8/6 26/17/26 37/9/37 23/28/23
f 4/16/4 28/1/28 36/23/36 25/30/25
f 11/22/11 30/12/30 35/12/35 18/22/18
f 10/31/10 31/26/31 34/26/34 20/31/20
f 20/31/20 34/26/34 33/26/33 14/31/14
f 18/22/18 35/12/35 32/12/32 15/22/15
f 25/30/25 36/23/36 31/26/31 10/31/10
f 6/8/6 5/7/5 29/18/29 26/17/26
f 23/28/23 37/9/37 30/12/30 11/22/11
f 4/16/4 3/15/3 27/2/27 28/1/28
f 8/35/8 38/5/38 49/27/49 24/36/24
f 2/20/2 41/13/41 48/29/48 22/10/22
f 12/34/12 42/21/42 47/21/47 19/34/19
f 9/11/9 43/32/43 46/32/46 21/11/21
f 21/11/21 46/32/46 45/32/45 13/11/13
f 22/10/22 48/29/48 43/32/43 9/11/9
f 24/36/24 49/27/49 42/21/42 12/34/12
f 19/34/19 47/21/47 44/21/44 16/34/16
f 2/20/2 1/19/1 39/14/39 41/13/41
f 8/35/8 7/37/7 40/6/40 38/5/38
f 17/33/17 33/26/33 16/25/16
f 33/26/33 17/33/17 14/31/14
f 17/33/17 45/32/45 14/31/14
f 45/32/45 17/33/17 13/11/13
