# Blender 5.1.1
# www.blender.org
mtllib thrust_ion.mtl
o ThrustIon
v 1.000000 0.000000 0.000000
v 0.965506 0.034494 -0.938967
v 1.000000 1.000000 -0.000000
v 0.965506 0.965506 -0.938967
v 0.000000 0.000000 0.000000
v 0.034494 0.034494 -0.938967
v 0.000000 1.000000 -0.000000
v 0.034494 0.965506 -0.938967
v 0.915256 0.084744 -1.441319
v 0.915256 0.915255 -1.441319
v 0.084745 0.084744 -1.441319
v 0.084745 0.915255 -1.441319
v 0.704952 0.295048 -2.168243
v 0.704952 0.704952 -2.168243
v 0.295048 0.295048 -2.168243
v 0.295048 0.704952 -2.168243
v 0.500000 0.500000 -2.494537
vn 0.7062 -0.7062 -0.0519
vn 0.7040 -0.7040 -0.0942
vn 0.7062 0.7062 -0.0519
vn 0.7040 0.7040 -0.0942
vn -0.7062 -0.7062 -0.0519
vn -0.7040 -0.7040 -0.0942
vn -0.7062 0.7062 -0.0519
vn -0.7040 0.7040 -0.0942
vn 0.6850 -0.6850 -0.2483
vn 0.6850 0.6850 -0.2483
vn -0.6850 -0.6850 -0.2483
vn -0.6850 0.6850 -0.2483
vn 0.6136 -0.6136 -0.4969
vn 0.6136 0.6136 -0.4969
vn -0.6136 -0.6136 -0.4969
vn -0.6136 0.6136 -0.4969
vn -0.0000 -0.0000 -1.0000
vt 0.375000 0.750000
vt 0.375000 1.000000
vt 0.625000 1.000000
vt 0.625000 0.750000
vt 0.375000 0.000000
vt 0.375000 0.250000
vt 0.625000 0.250000
vt 0.625000 0.000000
vt 0.375000 0.500000
vt 0.625000 0.500000
s 1
usemtl Material
f 4/1/4 8/2/8 7/3/7 3/4/3
f 8/5/8 6/6/6 5/7/5 7/8/7
f 6/6/6 11/6/11 9/9/9 2/9/2
f 2/9/2 4/1/4 3/4/3 1/10/1
f 6/6/6 2/9/2 1/10/1 5/7/5
f 12/5/12 16/5/16 15/6/15 11/6/11
f 4/1/4 10/1/10 12/2/12 8/2/8
f 8/5/8 12/5/12 11/6/11 6/6/6
f 2/9/2 9/9/9 10/1/10 4/1/4
f 13/9/13 17/9/17 14/1/14
f 9/9/9 13/9/13 14/1/14 10/1/10
f 11/6/11 15/6/15 13/9/13 9/9/9
f 10/1/10 14/1/14 16/2/16 12/2/12
f 15/6/15 17/6/17 13/9/13
f 14/1/14 17/1/17 16/2/16
f 16/5/16 17/5/17 15/6/15
